#format: frame checksums
#version: 1
#hash: MD5
#tb 0: 1/30
#stream#, dts,        pts, duration,     size, hash
0,          0,          0,        1,    38016, 905a823da31f71f9c25ebb8dfc9ddd3c
0,          1,          1,        1,    38016, f0f411dd067bff05d5d9c64e3f52a4b1
0,          2,          2,        1,    38016, c8696f8fa56b4adf18f3db0c384d968f
0,          3,          3,        1,    38016, 5772aa26a95092b4a8a117e97d6dde49
0,          4,          4,        1,    38016, fc52254ea1cbcc2e7a5b126d8c44a023
0,          5,          5,        1,    38016, bf6208554657f568ad69d5c60f692fdb
0,          6,          6,        1,    38016, 3a68eef642b250177592455f4aa925d9
0,          7,          7,        1,    38016, 98102b7bd56cbe456d86c93e8cdd48eb
0,          8,          8,        1,    38016, 59d54b7d97600b2890c8abab2af9a7dc
0,          9,          9,        1,    38016, ba4b4bb534ee2a00f418828b9723d996
0,         10,         10,        1,    38016, feb1115136fa96d5e9425ac18261de7c
0,         11,         11,        1,    38016, ef7eb6dc656c2bd7447c7d8f650108c1
0,         12,         12,        1,    38016, 89ec385a0d34c8fd5b1334d8756c96b9
0,         13,         13,        1,    38016, 27bc439dd8e6d50c3c7a6e0b390e7418
0,         14,         14,        1,    38016, ec36c065d8b668fabb6b16ecc01eea0a
0,         15,         15,        1,    38016, 5c94f9b441fc70f62856c835f9e9ad50
0,         16,         16,        1,    38016, 4b6c1bd876b00052b39e6ca91cad9c05
0,         17,         17,        1,    38016, 1099121afd681cf3218dffb9714a0fd7
0,         18,         18,        1,    38016, d0c1de888fab35f33c1148dc80494d20
0,         19,         19,        1,    38016, 745941ea768d06ea27c3fbca782e3591
0,         20,         20,        1,    38016, 09f85054f188da6f7260debf6b71bbb1
0,         21,         21,        1,    38016, 2bdd642a7551681f1ca9680a0d9183a8
0,         22,         22,        1,    38016, 054aba9db9790a0f1c79db491a6cac6d
0,         23,         23,        1,    38016, fa4b52162f6da0c15100f4382d92d7e4
0,         24,         24,        1,    38016, 88c589535811dd394bd1723172329629
0,         25,         25,        1,    38016, c11cc1a30199d46db048120969dc4118
0,         26,         26,        1,    38016, c61207280f40620f8cd5e962f3aa160f
0,         27,         27,        1,    38016, 8a721ecbad0b2f17aabb2d06e27c00aa
0,         28,         28,        1,    38016, da32f1d272e065cd31415b23f86837cc
